<svg width="532" height="708" viewBox="0 0 532 708" xmlns="http://www.w3.org/2000/svg">
  <title>
    Logo Devign
  </title>
  <path d="M132.478 399.134l-43.255 43.254L266 619.165l176.777-176.777-22.097-22.097 44.194-44.193 44.194 44.194 22.097 22.098L266 707.553l-22.097-22.097L.835 442.388l22.097-22.097L89.222 354 .836 265.612l22.097-22.097 220.97-220.97L266 .446l265.165 265.165-22.097 22.097L266 530.776l-22.097-22.097-89.013-89.014 44.194-44.194L266 442.388 354.388 354 266 265.612l-80.49 80.49-.624-.626-53.033 53.033.625.624zm.94-89.328L266 177.223l22.097 22.097 110.486 110.486 44.194-44.194L266 88.835 89.223 265.612l44.194 44.194z" fill="#FFF" fill-rule="evenodd"/>
</svg>
